#!OML:ASF F:\VICON\USERDATA\INSTALL\rory3\rory3.ASF
:FULLY-SPECIFIED
:DEGREES
369
root 15.3485 18.0622 12.5719 -250.907 87.1654 -247.337
lowerback 10.6654 2.3283 -1.44539
upperback 0.655934 2.91277 -0.827594
thorax -5.32138 1.47505 -0.492288
lowerneck -20.6605 -5.60005 -11.549
upperneck 30.2018 -5.88704 7.29173
head 14.4628 -2.67417 3.91378
rclavicle -2.52301e-014 4.67144e-015
rhumerus -29.4972 -12.9076 -82.8578
rradius 35.0111
rwrist 2.09765
rhand -15.7306 9.5812
rfingers 7.12502
rthumb 10.46 -20.1386
lclavicle -2.52301e-014 4.67144e-015
lhumerus -35.195 8.76699 82.7209
lradius 24.3681
lwrist -10.7292
lhand -16.7035 24.0424
lfingers 7.12502
lthumb 9.52143 53.8073
rfemur -1.39355 -1.84343 16.9583
rtibia 53.9109
rfoot 9.01217 2.17888
rtoes 0.482935
lfemur -4.76867 2.57067 -26.6664
ltibia 6.12592
lfoot 4.68606 -7.78123
ltoes 7.78606
370
root 15.4734 18.0701 12.5576 -253.364 86.8871 -249.705
lowerback 10.7204 2.31558 -1.82474
upperback 0.713145 2.84905 -0.88591
thorax -5.30731 1.45277 -0.331911
lowerneck -20.7353 -5.57453 -11.5041
upperneck 30.1693 -5.84344 7.24217
head 14.4552 -2.6572 3.89147
rclavicle 6.81925e-015 1.07841e-014
rhumerus -29.6469 -12.7173 -83.0673
rradius 34.934
rwrist 1.85707
rhand -15.7244 9.47023
rfingers 7.12502
rthumb 10.466 -20.2492
lclavicle 6.81925e-015 1.07841e-014
lhumerus -34.8302 8.58017 82.7191
lradius 24.2952
lwrist -11.0341
lhand -16.6153 23.7695
lfingers 7.12502
lthumb 9.60656 53.5305
rfemur -2.60523 -1.89764 16.5273
rtibia 55.8441
rfoot 7.93103 1.56268
rtoes 1.12197
lfemur -3.40053 2.6642 -27.024
ltibia 4.58679
lfoot 5.05238 -7.88207
ltoes 8.83125
371
root 15.5957 18.0727 12.5436 -254.15 86.5973 -250.493
lowerback 10.6806 2.30921 -2.14799
upperback 0.742963 2.80086 -0.968579
thorax -5.26468 1.43627 -0.227285
lowerneck -20.682 -5.54665 -11.3055
upperneck 30.0582 -5.82366 7.06879
head 14.3762 -2.65086 3.78434
rclavicle -6.85807e-015 1.52567e-014
rhumerus -29.8102 -12.5491 -83.2332
rradius 34.86
rwrist 1.69638
rhand -15.5911 9.45058
rfingers 7.12502
rthumb 10.5946 -20.2624
lclavicle -6.85807e-015 1.52567e-014
lhumerus -34.4377 7.70771 83.0752
lradius 24.4634
lwrist -10.4576
lhand -16.9255 25.3862
lfingers 7.12502
lthumb 9.3072 55.1607
rfemur -3.92203 -2.01958 16.1208
rtibia 57.6229
rfoot 6.72792 1.10423
rtoes 0.348166
lfemur -2.11842 2.67478 -27.4131
ltibia 2.91306
lfoot 5.40308 -8.09186
ltoes 7.77045
372
root 15.7162 18.0726 12.5263 -256.711 86.1936 -253.107
lowerback 10.6386 2.33491 -2.57431
upperback 0.739079 2.78005 -1.10942
thorax -5.2584 1.43527 -0.130861
lowerneck -20.681 -5.53836 -11.177
upperneck 29.9738 -5.8108 6.92152
head 14.3259 -2.65182 3.69975
rclavicle 1.01116e-014 -8.22472e-015
rhumerus -30.0426 -12.5951 -83.3254
rradius 34.7673
rwrist 1.9036
rhand -15.4067 9.53848
rfingers 7.12502
rthumb 10.7725 -20.1653
lclavicle 1.01116e-014 -8.22472e-015
lhumerus -34.0394 6.90458 83.3602
lradius 24.5699
lwrist -10.0234
lhand -16.6176 26.2025
lfingers 7.12502
lthumb 9.60427 55.9636
rfemur -5.30278 -2.06184 15.5268
rtibia 59.2078
rfoot 5.51055 0.508267
rtoes -0.64119
lfemur -0.603038 2.77411 -27.9849
ltibia 0.616144
lfoot 6.07454 -8.30416
ltoes 7.32009
373
root 15.8368 18.0759 12.5091 -255.334 85.8813 -251.672
lowerback 10.688 2.18406 -2.86124
upperback 0.777068 2.54553 -1.11727
thorax -5.25363 1.3267 0.0564054
lowerneck -20.8693 -5.47648 -11.3172
upperneck 30.0886 -5.63306 6.87441
head 14.4013 -2.59736 3.74045
rclavicle 1.73719e-014 -8.99501e-015
rhumerus -30.0864 -12.3531 -83.425
rradius 34.457
rwrist 2.31258
rhand -15.3741 9.79003
rfingers 7.12502
rthumb 10.8039 -19.9121
lclavicle 1.73719e-014 -8.99501e-015
lhumerus -33.6998 6.67887 83.5186
lradius 24.5713
lwrist -9.93364
lhand -16.5561 26.1406
lfingers 7.12502
lthumb 9.66363 55.899
rfemur -6.47322 -2.25886 15.1399
rtibia 60.5628
rfoot 4.30873 -0.312641
rtoes -0.341616
lfemur 0.193775 2.66304 -28.337
ltibia -5.1684e-015
lfoot 6.23746 -8.0283
ltoes 10.4989
374
root 15.9607 18.0772 12.4981 -252.456 85.67 -248.511
lowerback 10.8901 2.02369 -3.04672
upperback 0.880922 2.31086 -1.04612
thorax -5.26174 1.21644 0.265777
lowerneck -20.8426 -5.39417 -11.4653
upperneck 30.0866 -5.43447 6.8052
head 14.3748 -2.54 3.77485
rclavicle 1.62134e-014 1.31198e-014
rhumerus -30.1789 -12.0304 -83.5385
rradius 34.1961
rwrist 2.56706
rhand -15.7079 9.63878
rfingers 7.12502
rthumb 10.4819 -20.0799
lclavicle 1.62134e-014 1.31198e-014
lhumerus -33.3863 6.63956 83.623
lradius 24.5447
lwrist -10.1811
lhand -16.8565 26.1836
lfingers 7.12502
lthumb 9.37376 55.9552
rfemur -7.27951 -2.57007 14.9556
rtibia 61.6939
rfoot 3.12721 -1.05584
rtoes -0.108251
lfemur 0.966965 2.47806 -28.4868
ltibia 1.51076e-014
lfoot 6.0216 -7.83431
ltoes 12.0318
